<svg width="30" height="30" viewBox="0 0 30 30" fill="none" xmlns="http://www.w3.org/2000/svg">
<mask id="mask0_73_159" style="mask-type:alpha" maskUnits="userSpaceOnUse" x="0" y="0" width="30" height="30">
<rect x="29.6661" y="30" width="29.6661" height="30" transform="rotate(-180 29.6661 30)" fill="#D9D9D9"/>
</mask>
<g mask="url(#mask0_73_159)">
<path d="M15.621 4.25281C16.73 4.25281 17.6721 4.64479 18.4474 5.42875C19.2226 6.21271 19.6102 7.16781 19.6102 8.29406L16.7981 8.29406C16.7981 7.93989 16.6846 7.65177 16.4576 7.42969C16.2303 7.2076 15.9515 7.09656 15.621 7.09656C15.2906 7.09656 15.0118 7.2126 14.7845 7.44469C14.5575 7.67677 14.444 7.95989 14.444 8.29406C14.444 8.62843 14.5575 8.91042 14.7845 9.14C15.0118 9.36958 15.2906 9.48437 15.621 9.48437L27.3048 9.48438L27.3048 12.3281L15.621 12.3281C14.5121 12.3281 13.57 11.9374 12.7947 11.1559C12.0195 10.3745 11.6319 9.42052 11.6319 8.29406C11.6319 7.16781 12.0195 6.21271 12.7947 5.42875C13.57 4.64479 14.5121 4.25281 15.621 4.25281ZM27.3048 17.6719L27.3048 20.5156L10.6767 20.5156C10.1608 20.5156 9.73264 20.6877 9.39209 21.0319C9.05176 21.376 8.88159 21.8091 8.88159 22.3309C8.88159 22.8526 9.05176 23.2868 9.39209 23.6334C9.73264 23.9801 10.1608 24.1534 10.6767 24.1534C11.1926 24.1534 11.6208 23.9801 11.9613 23.6334C12.3016 23.2868 12.4718 22.8526 12.4718 22.3309L15.2839 22.3309C15.2839 23.6647 14.8359 24.7758 13.94 25.6644C13.044 26.5529 11.9563 26.9972 10.6767 26.9972C9.39714 26.9972 8.30939 26.5529 7.41343 25.6644C6.51747 24.7758 6.06949 23.6647 6.06949 22.3309C6.06949 20.9972 6.51747 19.8872 7.41343 19.0009C8.30939 18.1149 9.39714 17.6719 10.6767 17.6719L27.3048 17.6719ZM6.96844 7.09656L6.96844 9.94031C6.45258 9.94031 6.02438 10.1136 5.68383 10.4603C5.3435 10.807 5.17333 11.2411 5.17333 11.7628C5.17333 12.2847 5.3435 12.7177 5.68383 13.0619C6.02438 13.406 6.45258 13.5781 6.96844 13.5781L27.3048 13.5781L27.3048 16.4219L6.96844 16.4219C5.68888 16.4219 4.60112 15.9764 3.70517 15.0853C2.80921 14.1943 2.36123 13.0868 2.36123 11.7628C2.36123 10.4291 2.80921 9.31791 3.70517 8.42937C4.60113 7.54083 5.68888 7.09656 6.96844 7.09656Z" fill="#414FF4"/>
</g>
</svg>
