<svg width="34" height="34" viewBox="0 0 34 34" fill="none" xmlns="http://www.w3.org/2000/svg">
<rect x="1" y="1" width="32" height="32" rx="8" fill="white"/>
<rect x="1" y="1" width="32" height="32" rx="8" stroke="#DFDFDF"/>
<path d="M19.3815 12.2062C19.3815 12.6952 19.5757 13.1642 19.9215 13.5099C20.2673 13.8557 20.7363 14.0499 21.2252 14.0499C21.7142 14.0499 22.1832 13.8557 22.5289 13.5099C22.8747 13.1642 23.069 12.6952 23.069 12.2062C23.069 11.7172 22.8747 11.2482 22.5289 10.9025C22.1832 10.5567 21.7142 10.3624 21.2252 10.3624C20.7363 10.3624 20.2673 10.5567 19.9215 10.9025C19.5757 11.2482 19.3815 11.7172 19.3815 12.2062Z" fill="#FF3B30" stroke="#FF3B30" stroke-width="1.25" stroke-linecap="round" stroke-linejoin="round"/>
<path d="M15.233 21.9922C15.3111 22.2581 15.4732 22.4916 15.695 22.6577C15.9169 22.8238 16.1866 22.9136 16.4637 22.9136C16.7409 22.9136 17.0106 22.8238 17.2324 22.6577C17.4543 22.4916 17.6164 22.2581 17.6944 21.9922" stroke="#2B3674" stroke-width="1.25" stroke-linecap="round" stroke-linejoin="round"/>
<path d="M16.4623 10.4688V9.08594" stroke="#2B3674" stroke-width="1.25" stroke-linecap="round" stroke-linejoin="round"/>
<path d="M21.0858 15.976C21.2019 19.5136 21.9935 20.1484 21.9935 20.1484H10.931C10.931 20.1484 11.8529 18.9709 11.8529 15.0781C11.8536 14.356 12.0238 13.6441 12.3498 12.9998C12.6757 12.3554 13.1484 11.7966 13.7298 11.3682C14.3111 10.9399 14.9849 10.654 15.6969 10.5335C16.4089 10.413 17.1392 10.4614 17.8291 10.6746" stroke="#2B3674" stroke-width="1.25" stroke-linecap="round" stroke-linejoin="round"/>
</svg>
